<svg xmlns="http://www.w3.org/2000/svg" viewBox="0 0 512 512">
  <!-- Background -->
  <rect width="512" height="512" rx="96" fill="#065f46"/>
  <!-- Subtle radial glow -->
  <radialGradient id="glow" cx="50%" cy="45%" r="50%">
    <stop offset="0%" stop-color="#10b981" stop-opacity="0.3"/>
    <stop offset="100%" stop-color="#065f46" stop-opacity="0"/>
  </radialGradient>
  <rect width="512" height="512" rx="96" fill="url(#glow)"/>
  <!-- Book body -->
  <path d="M148 120 C148 108 158 100 170 100 L340 100 C352 100 364 108 364 120 L364 400 C364 412 352 420 340 420 L170 420 C158 420 148 412 148 400 Z" fill="none" stroke="#d4af37" stroke-width="14" stroke-linejoin="round"/>
  <!-- Spine line -->
  <line x1="256" y1="100" x2="256" y2="420" stroke="#d4af37" stroke-width="8" stroke-linecap="round"/>
  <!-- Left page lines -->
  <line x1="178" y1="168" x2="240" y2="168" stroke="#d4af37" stroke-width="7" stroke-linecap="round" opacity="0.9"/>
  <line x1="178" y1="200" x2="240" y2="200" stroke="#d4af37" stroke-width="7" stroke-linecap="round" opacity="0.9"/>
  <line x1="178" y1="232" x2="240" y2="232" stroke="#d4af37" stroke-width="7" stroke-linecap="round" opacity="0.9"/>
  <line x1="178" y1="264" x2="226" y2="264" stroke="#d4af37" stroke-width="7" stroke-linecap="round" opacity="0.9"/>
  <!-- Right page lines -->
  <line x1="272" y1="168" x2="334" y2="168" stroke="#d4af37" stroke-width="7" stroke-linecap="round" opacity="0.9"/>
  <line x1="272" y1="200" x2="334" y2="200" stroke="#d4af37" stroke-width="7" stroke-linecap="round" opacity="0.9"/>
  <line x1="272" y1="232" x2="334" y2="232" stroke="#d4af37" stroke-width="7" stroke-linecap="round" opacity="0.9"/>
  <line x1="272" y1="264" x2="320" y2="264" stroke="#d4af37" stroke-width="7" stroke-linecap="round" opacity="0.9"/>
  <!-- Decorative star/crescent at bottom -->
  <circle cx="256" cy="352" r="22" fill="none" stroke="#d4af37" stroke-width="6" opacity="0.8"/>
  <circle cx="268" cy="344" r="16" fill="#065f46" opacity="0.9"/>
  <polygon points="256,316 261,332 278,332 264,342 270,358 256,348 242,358 248,342 234,332 251,332" fill="#d4af37" opacity="0.85"/>
</svg>
